<?xml version="1.0" encoding="UTF-8"?>
<svg width="20px" height="20px" viewBox="0 0 20 20" version="1.1" xmlns="http://www.w3.org/2000/svg" xmlns:xlink="http://www.w3.org/1999/xlink">
    <title>677DEAC6-ED0C-491C-81B1-C7E13112B63C@1.00x</title>
    <g id="Page-1" stroke="none" stroke-width="1" fill="none" fill-rule="evenodd">
        <g id="Testhy" transform="translate(-1139.000000, -10.000000)" fill="#636465">
            <g id="info" transform="translate(1139.000000, 10.000000)">
                <path d="M9.08235,6.729 C9.13725,6.78967 9.20784,6.82 9.29412,6.82 L10.7059,6.82 C10.7922,6.82 10.8627,6.78967 10.9176,6.729 C10.9725,6.66833 11,6.59033 11,6.495 L11,5.325 C11,5.22967 10.9725,5.15167 10.9176,5.091 C10.8627,5.03033 10.7922,5 10.7059,5 L9.29412,5 C9.20784,5 9.13725,5.03033 9.08235,5.091 C9.02745,5.15167 9,5.22967 9,5.325 L9,6.495 C9,6.59033 9.02745,6.66833 9.08235,6.729 Z" id="Path" fill-rule="nonzero"></path>
                <path d="M9.09412,14.464 C9.14902,14.5247 9.21961,14.555 9.30588,14.555 L10.6941,14.555 C10.7804,14.555 10.851,14.5247 10.9059,14.464 C10.9608,14.3947 10.9882,14.3167 10.9882,14.23 L10.9882,8.12 C10.9882,8.02467 10.9608,7.94667 10.9059,7.886 C10.851,7.82533 10.7804,7.795 10.6941,7.795 L9.30588,7.795 C9.21961,7.795 9.14902,7.82533 9.09412,7.886 C9.03922,7.94667 9.01176,8.02467 9.01176,8.12 L9.01176,14.23 C9.01176,14.3253 9.03922,14.4033 9.09412,14.464 Z" id="Path" fill-rule="nonzero"></path>
                <path d="M20,10 C20,15.5228 15.5228,20 10,20 C4.47715,20 0,15.5228 0,10 C0,4.47715 4.47715,0 10,0 C15.5228,0 20,4.47715 20,10 Z M19,10 C19,14.9706 14.9706,19 10,19 C5.02944,19 1,14.9706 1,10 C1,5.02944 5.02944,1 10,1 C14.9706,1 19,5.02944 19,10 Z" id="Shape"></path>
            </g>
        </g>
    </g>
</svg>