<?xml version="1.0" encoding="UTF-8"?>
<svg width="93px" height="16px" viewBox="0 0 93 16" version="1.1" xmlns="http://www.w3.org/2000/svg" xmlns:xlink="http://www.w3.org/1999/xlink">
    <title>D89C775F-233A-4D57-BE97-69604BB8A5AB@1.00x</title>
    <g id="Page-1" stroke="none" stroke-width="1" fill="none" fill-rule="evenodd">
        <g id="Testhy" transform="translate(-21.000000, -12.000000)" fill="#FFFFFF" fill-rule="nonzero">
            <g id="TESTHY" transform="translate(21.000000, 12.000000)">
                <path d="M4.88889,15.7778 C4.72593,15.7778 4.58519,15.7185 4.46667,15.6 C4.34815,15.4815 4.28889,15.3407 4.28889,15.1778 L4.28889,5 L0.6,5 C0.437037,5 0.296296,4.94074 0.177778,4.82222 C0.0592593,4.7037 0,4.56296 0,4.4 L0,0.822222 C0,0.65926 0.0592593,0.518519 0.177778,0.4 C0.296296,0.281481 0.437037,0.222222 0.6,0.222222 L13.6222,0.222222 C13.7852,0.222222 13.9259,0.281481 14.0444,0.4 C14.163,0.518519 14.2222,0.65926 14.2222,0.822222 L14.2222,4.4 C14.2222,4.56296 14.163,4.7037 14.0444,4.82222 C13.9259,4.94074 13.7852,5 13.6222,5 L9.93333,5 L9.93333,15.1778 C9.93333,15.3407 9.87407,15.4815 9.75556,15.6 C9.63704,15.7185 9.4963,15.7778 9.33333,15.7778 L4.88889,15.7778 Z" id="Path"></path>
                <path d="M16.4184,15.7778 C16.2554,15.7778 16.1147,15.7185 15.9962,15.6 C15.8777,15.4815 15.8184,15.3407 15.8184,15.1778 L15.8184,0.822222 C15.8184,0.65926 15.8777,0.518519 15.9962,0.4 C16.1147,0.281481 16.2554,0.222222 16.4184,0.222222 L27.8184,0.222222 C27.9814,0.222222 28.1221,0.281481 28.2406,0.4 C28.3591,0.518519 28.4184,0.65926 28.4184,0.822222 L28.4184,3.95556 C28.4184,4.11852 28.3591,4.25926 28.2406,4.37778 C28.1221,4.4963 27.9814,4.55556 27.8184,4.55556 L21.1517,4.55556 L21.1517,5.95555 L27.3295,5.95555 C27.4925,5.95555 27.6332,6.01481 27.7517,6.13333 C27.8703,6.25185 27.9295,6.39259 27.9295,6.55556 L27.9295,9.44444 C27.9295,9.60741 27.8703,9.74815 27.7517,9.86667 C27.6332,9.98518 27.4925,10.0444 27.3295,10.0444 L21.1517,10.0444 L21.1517,11.4444 L27.9962,11.4444 C28.1591,11.4444 28.2999,11.5037 28.4184,11.6222 C28.5369,11.7407 28.5962,11.8815 28.5962,12.0444 L28.5962,15.1778 C28.5962,15.3407 28.5369,15.4815 28.4184,15.6 C28.2999,15.7185 28.1591,15.7778 27.9962,15.7778 L16.4184,15.7778 Z" id="Path"></path>
                <path d="M37.1293,16 C35.559,16 34.2256,15.7852 33.1293,15.3556 C32.0479,14.9259 31.233,14.3556 30.6849,13.6444 C30.1367,12.9185 29.8479,12.1259 29.8182,11.2667 C29.8182,11.1333 29.8627,11.0222 29.9516,10.9333 C30.0553,10.8296 30.1738,10.7778 30.3071,10.7778 L34.5293,10.7778 C34.7367,10.7778 34.8997,10.8074 35.0182,10.8667 C35.1516,10.9111 35.3071,11.0074 35.4849,11.1556 C35.9145,11.4963 36.4627,11.6667 37.1293,11.6667 C37.633,11.6667 38.033,11.6148 38.3293,11.5111 C38.6404,11.3926 38.796,11.237 38.796,11.0444 C38.796,10.7778 38.596,10.5778 38.196,10.4444 C37.796,10.2963 37.0404,10.1481 35.9293,10 C32.1071,9.4963 30.196,7.86667 30.196,5.11111 C30.196,4.11852 30.4775,3.23704 31.0405,2.46667 C31.6182,1.68148 32.4182,1.07407 33.4404,0.644444 C34.4627,0.214815 35.6404,0 36.9738,0 C38.3664,0 39.5886,0.237037 40.6404,0.711111 C41.6923,1.18519 42.4997,1.78519 43.0627,2.51111 C43.6256,3.22222 43.9219,3.91852 43.9516,4.6 C43.9516,4.73333 43.8997,4.85185 43.796,4.95556 C43.7071,5.04444 43.6034,5.08889 43.4849,5.08889 L39.0405,5.08889 C38.833,5.08889 38.6701,5.06667 38.5516,5.02222 C38.433,4.96296 38.2997,4.86667 38.1516,4.73333 C37.8405,4.46667 37.4479,4.33333 36.9738,4.33333 C36.2627,4.33333 35.9071,4.54074 35.9071,4.95556 C35.9071,5.17778 36.0775,5.36296 36.4182,5.51111 C36.7738,5.65926 37.4256,5.79259 38.3738,5.91111 C39.8553,6.1037 41.0405,6.39259 41.9293,6.77778 C42.833,7.16296 43.4849,7.68148 43.8849,8.33333 C44.2997,8.97037 44.5071,9.77778 44.5071,10.7556 C44.5071,11.8074 44.1886,12.7333 43.5516,13.5333 C42.9145,14.3185 42.033,14.9259 40.9071,15.3556 C39.796,15.7852 38.5367,16 37.1293,16 Z" id="Path"></path>
                <path d="M50.0278,15.7778 C49.8648,15.7778 49.7241,15.7185 49.6056,15.6 C49.487,15.4815 49.4278,15.3407 49.4278,15.1778 L49.4278,5 L45.7389,5 C45.5759,5 45.4352,4.94074 45.3167,4.82222 C45.1981,4.7037 45.1389,4.56296 45.1389,4.4 L45.1389,0.822222 C45.1389,0.65926 45.1981,0.518519 45.3167,0.4 C45.4352,0.281481 45.5759,0.222222 45.7389,0.222222 L58.7611,0.222222 C58.9241,0.222222 59.0648,0.281481 59.1833,0.4 C59.3018,0.518519 59.3611,0.65926 59.3611,0.822222 L59.3611,4.4 C59.3611,4.56296 59.3018,4.7037 59.1833,4.82222 C59.0648,4.94074 58.9241,5 58.7611,5 L55.0722,5 L55.0722,15.1778 C55.0722,15.3407 55.013,15.4815 54.8944,15.6 C54.7759,15.7185 54.6352,15.7778 54.4722,15.7778 L50.0278,15.7778 Z" id="Path"></path>
                <path d="M61.5573,15.7778 C61.3943,15.7778 61.2536,15.7259 61.1351,15.6222 C61.0165,15.5037 60.9573,15.3556 60.9573,15.1778 L60.9573,0.822222 C60.9573,0.65926 61.0165,0.518519 61.1351,0.4 C61.2536,0.281481 61.3943,0.222222 61.5573,0.222222 L65.9128,0.222222 C66.0758,0.222222 66.2166,0.281481 66.3351,0.4 C66.4536,0.518519 66.5128,0.65926 66.5128,0.822222 L66.5128,5.48889 L70.1128,5.48889 L70.1128,0.822222 C70.1128,0.65926 70.1721,0.518519 70.2906,0.4 C70.4091,0.281481 70.5499,0.222222 70.7128,0.222222 L75.0684,0.222222 C75.2314,0.222222 75.3721,0.281481 75.4906,0.4 C75.6091,0.518519 75.6684,0.65926 75.6684,0.822222 L75.6684,15.1778 C75.6684,15.3407 75.6091,15.4815 75.4906,15.6 C75.3721,15.7185 75.2314,15.7778 75.0684,15.7778 L70.7128,15.7778 C70.5499,15.7778 70.4091,15.7185 70.2906,15.6 C70.1721,15.4815 70.1128,15.3407 70.1128,15.1778 L70.1128,10.3778 L66.5128,10.3778 L66.5128,15.1778 C66.5128,15.3407 66.4536,15.4815 66.3351,15.6 C66.2166,15.7185 66.0758,15.7778 65.9128,15.7778 L61.5573,15.7778 Z" id="Path"></path>
                <path d="M82.612,15.7778 C82.449,15.7778 82.3083,15.7185 82.1898,15.6 C82.0712,15.4815 82.012,15.3407 82.012,15.1778 L82.012,10.8 L77.012,0.911111 C76.9823,0.851852 76.9675,0.785185 76.9675,0.711111 C76.9675,0.577778 77.012,0.466667 77.1009,0.377778 C77.2046,0.274074 77.3231,0.222222 77.4564,0.222222 L81.6342,0.222222 C81.886,0.222222 82.086,0.288889 82.2342,0.422222 C82.3972,0.540741 82.5083,0.659259 82.5675,0.777778 L84.7897,5.24444 L87.012,0.777778 C87.0712,0.659259 87.1749,0.540741 87.3231,0.422222 C87.486,0.288889 87.6935,0.222222 87.9453,0.222222 L92.1231,0.222222 C92.2564,0.222222 92.3675,0.274074 92.4564,0.377778 C92.5601,0.466667 92.612,0.577778 92.612,0.711111 C92.612,0.785185 92.5972,0.851852 92.5675,0.911111 L87.5675,10.8 L87.5675,15.1778 C87.5675,15.3407 87.5083,15.4815 87.3898,15.6 C87.2712,15.7185 87.1305,15.7778 86.9675,15.7778 L82.612,15.7778 Z" id="Path"></path>
            </g>
        </g>
    </g>
</svg>