<?xml version="1.0" encoding="UTF-8"?>
<svg width="27px" height="32px" viewBox="0 0 27 32" version="1.1" xmlns="http://www.w3.org/2000/svg" xmlns:xlink="http://www.w3.org/1999/xlink">
    <title>495AECAC-F48F-4B8A-A9C6-4237A6856AD1@1.00x</title>
    <defs>
        <path d="M3.67347,7.21369 L11.9388,7.21369 C12.4898,7.21369 12.8571,7.57324 12.8571,8.11255 L12.8571,17.1011 C12.8571,17.5506 12.4898,18 11.9388,18 L0.918367,18 C0.459184,18 0,17.5506 0,17.1011 L0,8.11255 C0,7.57324 0.459184,7.21369 0.918367,7.21369 L1.83673,7.21369 L1.83673,4.69689 C1.83673,2.35986 3.58163,0.29248 5.96939,0.0228226 C8.72449,-0.246835 11.0204,1.91043 11.0204,4.51712 C11.0204,5.05643 10.5612,5.41598 10.102,5.41598 C9.64286,5.41598 9.18367,5.05643 9.18367,4.51712 C9.18367,2.80929 7.62245,1.55088 5.87755,1.82054 C4.59184,2.0902 3.67347,3.25871 3.67347,4.607 L3.67347,7.21369 Z M7.34694,14.4045 L7.34694,13.236 C7.9898,12.8765 8.44898,12.1574 8.26531,11.3484 C8.08163,10.7192 7.53061,10.1799 6.88776,10.0001 C5.69388,9.73048 4.59184,10.5395 4.59184,11.708 C4.59184,12.3372 4.95918,12.8765 5.51021,13.236 L5.51021,14.4045 C5.51021,14.9439 5.87755,15.3034 6.42857,15.3034 C6.97959,15.3034 7.34694,14.9439 7.34694,14.4045 Z" id="path-1"></path>
        <filter x="-81.7%" y="-58.3%" width="263.3%" height="216.7%" filterUnits="objectBoundingBox" id="filter-2">
            <feOffset dx="0" dy="0" in="SourceAlpha" result="shadowOffsetOuter1"></feOffset>
            <feGaussianBlur stdDeviation="3.5" in="shadowOffsetOuter1" result="shadowBlurOuter1"></feGaussianBlur>
            <feColorMatrix values="0 0 0 0 0   0 0 0 0 0   0 0 0 0 0  0 0 0 0.25 0" type="matrix" in="shadowBlurOuter1"></feColorMatrix>
        </filter>
    </defs>
    <g id="Page-1" stroke="none" stroke-width="1" fill="none" fill-rule="evenodd">
        <g id="Testhy" transform="translate(-739.000000, -559.000000)">
            <g id="Group-4-Copy-4" transform="translate(730.000000, 340.000000)">
                <g id="Shape" transform="translate(16.000000, 226.000000)">
                    <use fill="black" fill-opacity="1" filter="url(#filter-2)" xlink:href="#path-1"></use>
                    <use fill="#FFFFFF" fill-rule="evenodd" xlink:href="#path-1"></use>
                </g>
            </g>
        </g>
    </g>
</svg>